<?xml version="1.0" encoding="UTF-8"?>
<svg id="Layer_1" xmlns="http://www.w3.org/2000/svg" version="1.1" viewBox="0 0 563 684">
  <!-- Generator: Adobe Illustrator 29.0.0, SVG Export Plug-In . SVG Version: 2.1.0 Build 186)  -->
  <defs>
    <style>
      .st0 {
        fill: none;
      }

      .st0, .st1, .st2 {
        stroke: #000;
        stroke-miterlimit: 10;
      }

      .st3 {
        font-family: Roboto-Black, Roboto;
        font-size: 48px;
        font-weight: 800;
      }

      .st1 {
        fill: #fff;
      }

      .st4 {
        fill: #f7931e;
      }
    </style>
  </defs>
  <g>
    <g>
      <path class="st4" d="M288.5,283.5c-47.42,0-86-32.97-86-73.5s38.58-73.5,86-73.5,86,32.97,86,73.5-38.58,73.5-86,73.5Z"/>
      <path d="M288.5,137c47.14,0,85.5,32.75,85.5,73s-38.36,73-85.5,73-85.5-32.75-85.5-73,38.36-73,85.5-73M288.5,136c-47.77,0-86.5,33.13-86.5,74s38.73,74,86.5,74,86.5-33.13,86.5-74-38.73-74-86.5-74h0Z"/>
    </g>
    <line class="st0" x1="292.5" y1="283.5" x2="292.5" y2="334.5"/>
    <text class="st3" transform="translate(150.74 586.57)"><tspan x="0" y="0">STIAN KODER</tspan></text>
    <rect class="st2" x="175.5" y="103.5" width="200" height="30"/>
    <rect class="st2" x="94.5" y="65.5" width="200" height="30"/>
    <rect class="st2" x="36.5" y="27.5" width="200" height="30"/>
    <rect class="st2" x="66.5" y="141.5" width="139" height="30"/>
    <rect class="st2" x="366.5" y="141.5" width="139" height="30"/>
    <rect class="st2" x="33.5" y="177.5" width="161" height="30"/>
    <rect class="st2" x="378.5" y="177.5" width="161" height="30"/>
    <rect class="st2" x="33.5" y="213.5" width="161" height="30"/>
    <rect class="st2" x="378.5" y="213.5" width="161" height="30"/>
    <line class="st0" x1="152.5" y1="222.5" x2="159.5" y2="223.5"/>
    <rect class="st2" x="49.5" y="250.5" width="161" height="30"/>
    <rect class="st2" x="365.5" y="249.5" width="161" height="30"/>
    <rect class="st2" x="107.5" y="286.5" width="147" height="37"/>
    <rect class="st2" x="334.5" y="283.5" width="147" height="38"/>
    <rect class="st2" x="194.5" y="332.5" width="214" height="30"/>
    <rect class="st2" x="175.5" y="367.5" width="247" height="30"/>
    <rect class="st2" x="184.5" y="403.5" width="224" height="30"/>
    <rect class="st2" x="168.5" y="441.5" width="247" height="30"/>
    <rect class="st2" x="184.5" y="477.5" width="224" height="30"/>
    <rect class="st2" x="222.5" y="514.5" width="149" height="30"/>
  </g>
  <path class="st1" d="M-290.5,765.5"/>
</svg>